<svg xml:space="preserve" viewbox="0 0 128 128" xmlns="http://www.w3.org/2000/svg"><path style="fill:#fff;fill-opacity:1;stroke-width:11.2985;stroke-linecap:round;paint-order:markers stroke fill;stop-color:#000" d="M76.924 59.692v-8.616h8.614v8.615ZM59.69 42.462v25.846h-17.23v17.23h25.847v-34.46h8.615v-8.616h-8.615zm43.077 8.615v-8.615h8.616v8.615zm0 17.23v-8.615h8.616v8.616zm0 17.231v-8.614h8.616v8.615Zm-86.151-34.46v-8.616h8.614v8.615zm0 17.23v-8.616h8.614v8.616zm0 17.23v-8.614h8.614v8.615Zm60.307 17.231h8.615v8.616h-8.615zm-17.23 0h8.614v8.616h-8.615zm-17.231 0h8.615v8.616h-8.615Zm34.46-86.154h8.615v8.616h-8.614Zm-17.23 0h8.615v8.616h-8.616zm-17.231 0h8.615v8.616h-8.615zM94.154 8H120v25.846H94.154ZM8 8h25.846v25.846H8Zm0 86.154h25.846V120H8Zm86.154 0H120V120H94.154Z"/></svg>
