<svg height="48" width="159.714" xmlns="http://www.w3.org/2000/svg"><path d="M25.376.877c-12.77 0-23.123 10.352-23.123 23.122s10.353 23.122 23.123 23.122c12.77 0 23.122-10.351 23.122-23.122C48.498 11.23 38.147.878 25.375.878zm10.603 33.349a1.44 1.44 0 0 1-1.982.477c-5.429-3.316-12.263-4.067-20.312-2.228a1.442 1.442 0 0 1-.642-2.81c8.809-2.013 16.364-1.146 22.459 2.578.679.417.894 1.304.477 1.983zm2.83-6.296a1.803 1.803 0 0 1-2.479.594c-6.215-3.82-15.69-4.927-23.041-2.695a1.805 1.805 0 0 1-2.25-1.201 1.805 1.805 0 0 1 1.202-2.249c8.398-2.548 18.837-1.313 25.975 3.073a1.802 1.802 0 0 1 .594 2.478zm.244-6.556C31.6 16.947 19.305 16.54 12.19 18.7a2.162 2.162 0 1 1-1.256-4.139c8.168-2.48 21.746-2 30.326 3.093a2.16 2.16 0 0 1 .756 2.964 2.16 2.16 0 0 1-2.962.756zm26.109.848c-3.993-.952-4.702-1.62-4.702-3.024 0-1.327 1.248-2.22 3.106-2.22 1.8 0 3.584.679 5.456 2.074.055.042.127.06.196.048a.258.258 0 0 0 .174-.107l1.95-2.747a.262.262 0 0 0-.05-.356c-2.229-1.787-4.736-2.656-7.668-2.656-4.31 0-7.323 2.587-7.323 6.288 0 3.97 2.599 5.374 7.088 6.46 3.819.88 4.465 1.617 4.465 2.934 0 1.46-1.303 2.37-3.402 2.37-2.33 0-4.233-.788-6.359-2.627a.27.27 0 0 0-.19-.063.259.259 0 0 0-.18.09l-2.187 2.602c-.09.11-.08.27.025.364 2.474 2.21 5.517 3.375 8.803 3.375 4.644 0 7.645-2.538 7.645-6.467.009-3.315-1.977-5.152-6.839-6.334zm17.356-3.937c-2.013 0-3.664.793-5.028 2.418v-1.83a.26.26 0 0 0-.26-.261h-3.575a.26.26 0 0 0-.26.262v20.322c0 .143.116.262.26.262h3.576c.143 0 .26-.119.26-.262v-6.414c1.363 1.527 3.014 2.275 5.027 2.275 3.742 0 7.53-2.88 7.53-8.385.005-5.507-3.783-8.388-7.527-8.388zm3.372 8.387c0 2.802-1.726 4.76-4.2 4.76-2.444 0-4.288-2.046-4.288-4.76 0-2.715 1.844-4.76 4.288-4.76 2.432 0 4.2 2.001 4.2 4.76zm13.863-8.387c-4.818 0-8.592 3.71-8.592 8.447 0 4.686 3.75 8.355 8.534 8.355 4.835 0 8.62-3.697 8.62-8.415 0-4.703-3.76-8.387-8.562-8.387zm0 13.174c-2.562 0-4.495-2.06-4.495-4.789 0-2.741 1.867-4.73 4.437-4.73 2.58 0 4.523 2.058 4.523 4.79 0 2.741-1.878 4.73-4.465 4.73zm18.85-12.847h-3.934V14.59a.26.26 0 0 0-.26-.262h-3.575a.263.263 0 0 0-.263.262v4.022h-1.717a.26.26 0 0 0-.26.262v3.072c0 .144.116.262.26.262h1.717v7.95c0 3.212 1.599 4.84 4.755 4.84 1.281 0 2.344-.264 3.346-.833a.256.256 0 0 0 .133-.226v-2.927a.26.26 0 0 0-.124-.221.253.253 0 0 0-.254-.011 4.513 4.513 0 0 1-2.099.505c-1.146 0-1.66-.522-1.66-1.687V22.21h3.935a.26.26 0 0 0 .26-.262v-3.072a.253.253 0 0 0-.257-.262zm13.707.015v-.494c0-1.453.557-2.1 1.805-2.1.746 0 1.345.147 2.016.37a.26.26 0 0 0 .342-.249v-3.012a.259.259 0 0 0-.185-.25c-.706-.211-1.612-.428-2.97-.428-3.3 0-5.048 1.86-5.048 5.376v.756h-1.717a.263.263 0 0 0-.263.262v3.088c0 .144.12.262.263.262h1.717v12.26c0 .147.119.263.262.263h3.573a.26.26 0 0 0 .263-.262v-12.26h3.338l5.113 12.26c-.58 1.286-1.15 1.543-1.93 1.543-.63 0-1.295-.188-1.971-.56a.285.285 0 0 0-.207-.02.26.26 0 0 0-.155.141l-1.212 2.66a.261.261 0 0 0 .113.339c1.265.685 2.405.977 3.816.977 2.64 0 4.1-1.231 5.384-4.54l6.202-16.024a.255.255 0 0 0-.028-.243.255.255 0 0 0-.212-.114h-3.722a.262.262 0 0 0-.249.176l-3.813 10.888-4.175-10.895a.26.26 0 0 0-.243-.169h-6.107zm-7.947-.015h-3.576a.263.263 0 0 0-.262.262v15.595c0 .146.119.262.262.262h3.576a.262.262 0 0 0 .262-.262V18.875a.261.261 0 0 0-.262-.262zm-1.767-7.102a2.563 2.563 0 1 0-.003 5.127 2.563 2.563 0 0 0 .003-5.127zm31.317 12.116a2.506 2.506 0 0 1-2.516-2.516 2.53 2.53 0 0 1 2.53-2.529 2.506 2.506 0 0 1 2.515 2.515 2.53 2.53 0 0 1-2.53 2.53zm.014-4.795c-1.29 0-2.265 1.025-2.265 2.28 0 1.253.97 2.264 2.25 2.264 1.29 0 2.265-1.024 2.265-2.28 0-1.253-.97-2.264-2.25-2.264zm.557 2.523.713.997h-.602l-.64-.914h-.55v.914h-.503V19.71h1.176c.616 0 1.02.314 1.02.842.002.433-.25.698-.61.802zm-.425-1.19h-.654v.834h.654c.326 0 .522-.16.522-.418 0-.271-.196-.417-.522-.417z" style="stroke-width:.276112"/></svg>