<svg width="209" height="48" xmlns="http://www.w3.org/2000/svg"><path d="M43.258 16.537 36.9 22.899l-6.362-6.362 6.362-6.359zm-25.439 0-6.362 6.362L5.1 16.537l6.358-6.359zm12.719 12.72-6.362 6.362-6.359-6.362 6.36-6.36zm0-12.72-6.362 6.362-6.359-6.362 6.363-6.359zm134.547 18.562h5.455l-8.95-21.73h-5.125l-9.038 21.732h5.309l1.602-4.288h9.163zm-9.42-8.147 3.274-8.498 3.242 8.498zm-37.997-13.584h8.039c5.932 0 11.835 3.138 11.835 10.803 0 7.224-5.785 10.924-11.541 10.924h-8.333zm4.815 17.468h3.08c4.14 0 6.9-2.583 6.9-6.693 0-3.905-2.79-6.547-6.784-6.547h-3.196zm66.245-.025h8.583v4.29h-13.546V13.37h4.963zm-87.583 4.29h-4.963V13.37h4.965zm-26.107 0h-4.933v-17.5h-6.384V13.37H81.42v4.23h-6.381z" style="stroke-width:2.14945"/></svg>