<svg width="283" height="48" xmlns="http://www.w3.org/2000/svg"><path d="M44.283 37.266H0L17.225-.001h44.283L44.283 37.266m226.382-3.163c4.977 0 7.31-4.51 7.31-10.473 0-3.474-.363-10.162-7.415-10.162-6.583 0-7.31 7.103-7.31 11.51 0 7.207 4.512 9.125 7.415 9.125zm-11.77-23.953h4.303v3.836h.104c1.09-1.555 3.163-4.614 8.088-4.614 7.207 0 11.303 5.91 11.303 13.532 0 6.48-2.696 15.14-11.925 15.14-3.63 0-6.015-1.711-7.206-3.63h-.104V48h-4.563v-37.85m-40.233 0h4.301v3.837h.105c.985-1.452 3.319-4.614 8.192-4.614s6.428 2.955 7.207 4.407c2.281-2.54 4.096-4.407 8.295-4.407 2.905 0 8.4 1.503 8.4 9.125v18.769H250.6V19.74c0-3.733-1.142-6.273-5.03-6.273-3.837 0-6.377 3.629-6.377 7.259v16.539h-4.563V18.497c0-2.282-.882-5.03-4.252-5.03-2.591 0-7.155 1.66-7.155 9.022v14.777h-4.561V10.15m-9.697 13.273c-.727.57-1.867.984-7.519 1.71-2.23.312-5.806.986-5.806 4.407 0 2.955 1.503 4.719 4.925 4.719 4.251 0 8.4-2.748 8.4-6.378zm-16.695-5.03c.206-6.48 4.51-9.021 11.198-9.021 2.178 0 10.058.622 10.058 7.57v15.606c0 1.14.572 1.607 1.505 1.607.414 0 .985-.104 1.504-.208v3.319c-.779.207-1.452.518-2.489.518-4.045 0-4.666-2.074-4.823-4.147-1.762 1.918-4.51 4.406-9.798 4.406-4.979 0-8.504-3.162-8.504-7.829 0-2.281.675-7.57 8.244-8.503l7.518-.933c1.088-.104 2.385-.518 2.385-3.214 0-2.852-2.073-4.408-6.377-4.408-5.185 0-5.911 3.163-6.221 5.237h-4.2m-6.222.882c-.572-3.63-2.593-5.807-6.43-5.807-5.652 0-7.466 5.392-7.466 10.214 0 4.666 1.14 10.421 7.414 10.421 3.059 0 5.704-2.281 6.482-6.43h4.407c-.467 4.304-3.112 10.37-11.045 10.37-7.621 0-12.132-5.755-12.132-13.584 0-8.399 4.044-15.087 13.013-15.087 7.104 0 9.8 5.184 10.164 9.903h-4.407m-34.791 14.828c2.903 0 7.414-1.918 7.414-9.125 0-4.407-.726-11.51-7.31-11.51-7.052 0-7.415 6.688-7.415 10.162 0 5.962 2.333 10.473 7.31 10.473zm12.028 3.163h-4.303v-3.733h-.104c-1.97 3.681-5.08 4.51-7.725 4.51-9.23 0-11.925-8.658-11.925-15.14 0-7.62 4.096-13.531 11.303-13.531 4.925 0 7 3.059 8.088 4.614h.104V.039h4.562v37.227m-26.65 0h-4.563V20.57c0-4.718-1.348-7.103-5.807-7.103-2.592 0-7.155 1.659-7.155 9.021v14.777h-4.562V10.15h4.303v3.836h.103c.986-1.452 3.527-4.614 8.193-4.614 4.2 0 9.488 1.71 9.488 9.436v18.458m-31.783-13.843c-.726.57-1.867.984-7.518 1.71-2.23.312-5.807.986-5.807 4.407 0 2.955 1.503 4.719 4.925 4.719 4.252 0 8.4-2.748 8.4-6.378zm-16.695-5.03c.207-6.48 4.51-9.021 11.199-9.021 2.177 0 10.058.622 10.058 7.57v15.606c0 1.14.57 1.607 1.504 1.607.415 0 .985-.104 1.504-.208v3.319c-.778.207-1.452.518-2.489.518-4.045 0-4.666-2.074-4.822-4.147-1.763 1.918-4.51 4.406-9.8 4.406-4.977 0-8.502-3.162-8.502-7.829 0-2.281.673-7.57 8.243-8.503l7.518-.933c1.09-.104 2.385-.518 2.385-3.214 0-2.852-2.074-4.408-6.377-4.408-5.185 0-5.91 3.163-6.222 5.237h-4.2M73.38 13.468c-6.585 0-7.31 7.103-7.31 11.51 0 7.207 4.51 9.125 7.414 9.125 4.977 0 7.31-4.51 7.31-10.473 0-3.474-.362-10.162-7.414-10.162zM61.714 37.266V.039h4.562v13.532h.104c1.97-2.851 4.666-4.148 7.829-4.2 7.207 0 11.303 5.912 11.303 13.533 0 6.48-2.696 15.14-11.926 15.14-4.614 0-6.532-2.644-7.465-4.148h-.104v3.37h-4.303" fill="#100f0d"/></svg>