<svg viewBox="0 0 16 16" xmlns="http://www.w3.org/2000/svg"><path d="M8 0C3.58 0 0 3.58 0 8a8 8 0 0 0 8 8 8 8 0 0 0 8-8c0-4.42-3.579-8-8-8Zm3.162 12.093c-.156 0-.267-.06-.382-.13-1.082-.655-2.42-1-3.87-1-.74 0-1.54.088-2.373.26l-.101.026c-.106.026-.214.054-.297.054a.591.591 0 0 1-.601-.596c0-.34.191-.58.511-.638a12.778 12.778 0 0 1 2.865-.338c1.687 0 3.194.39 4.484 1.162.22.129.36.278.36.607a.599.599 0 0 1-.596.593zm.83-2.328a.78.78 0 0 1-.421-.136c-1.948-1.156-4.85-1.54-7.238-.902-.04.011-.077.022-.11.034-.09.028-.172.057-.292.057a.715.715 0 0 1-.711-.717c0-.38.199-.646.558-.75.92-.252 1.786-.419 3.03-.419 2.012 0 3.961.505 5.49 1.419.277.158.404.377.404.7a.711.711 0 0 1-.71.714zm.942-2.655c-.178 0-.286-.042-.45-.13-1.322-.794-3.382-1.266-5.52-1.266-1.113 0-2.123.123-3.005.361-.03.007-.059.015-.09.025-.093.027-.21.062-.331.062a.831.831 0 0 1-.836-.844c0-.412.23-.727.619-.841 1.064-.315 2.29-.474 3.642-.474 2.435 0 4.751.54 6.356 1.483.302.171.45.432.45.793a.823.823 0 0 1-.835.831z" /></svg>
