<svg width="16" height="16" viewBox="0 0 10.667 10.667" fill="none" xmlns="http://www.w3.org/2000/svg"><path fill-rule="evenodd" clip-rule="evenodd" d="M2.238 1.005C2.824.7 3.578.587 4.355.68c.779.095 1.585.397 2.278.815a.144.144 0 11-.15.247c-.663-.4-1.43-.686-2.162-.775-.732-.089-1.425.02-1.95.293a.145.145 0 01-.133-.256zM8.576 4.21a.145.145 0 01.179.1c.28.983.373 2.142.212 3.154-.16 1.01-.575 1.88-1.11 2.4a2.488 2.488 0 01-2.073.742c-.788-.091-1.596-.562-2.214-1.218a.144.144 0 11.21-.198c.585.62 1.334 1.048 2.037 1.13a2.199 2.199 0 001.835-.66h.001l.002-.002c.478-.465.872-1.273 1.026-2.24.154-.966.066-2.082-.204-3.028a.145.145 0 01.1-.18z" fill="#1b1b1b"/><path fill-rule="evenodd" clip-rule="evenodd" d="M9.197 4.37a.145.145 0 01.195.062c.43.83.667 1.783.622 2.631-.045.849-.372 1.593-.87 2.08-.526.541-1.36.874-2.292.875-.933.001-1.968-.328-2.82-.848a.144.144 0 11.15-.247c.816.497 1.8.807 2.67.806.869-.001 1.623-.312 2.085-.79h.002l.001-.002c.44-.43.743-1.102.785-1.89.042-.788-.179-1.69-.59-2.481a.144.144 0 01.062-.195zM9.144 1.524a.145.145 0 010 .204l-.367.366a.145.145 0 01-.205-.204l.367-.366a.145.145 0 01.205 0zM7.033 3.633a.144.144 0 010 .204L3.844 7.025a.145.145 0 01-.204-.205l3.189-3.187a.145.145 0 01.204 0zM2.084 8.58a.144.144 0 010 .204l-.358.359a.145.145 0 01-.205-.205l.359-.358a.145.145 0 01.204 0zM2.531 8.947c.08.003.142.07.139.15-.016.363.063.58.171.675.092.082.257.114.542-.04a.145.145 0 01.137.256c-.332.177-.646.2-.87 0-.21-.184-.285-.516-.27-.903a.145.145 0 01.151-.138zM5.279 3.76a.145.145 0 01-.064.194c-1.45.729-2.903 1.746-3.621 2.483l-.001.001-.001.001c-.25.246-.448.487-.58.702-.136.22-.192.395-.187.516.005.105.058.186.174.247.124.064.315.1.568.09a.145.145 0 11.01.29c-.278.01-.526-.028-.71-.124a.568.568 0 01-.33-.49c-.01-.208.083-.444.228-.68.148-.24.362-.498.623-.756.747-.766 2.23-1.8 3.697-2.538a.145.145 0 01.194.064z" fill="#1b1b1b"/><path fill-rule="evenodd" clip-rule="evenodd" d="M9.87 2.7a.145.145 0 01.196.057c.125.225.055.51-.086.78-.146.279-.391.587-.702.894-.487.515-1.32 1.138-2.244 1.714-.926.578-1.953 1.116-2.83 1.456a.145.145 0 01-.105-.27c.856-.331 1.867-.86 2.782-1.43.917-.573 1.727-1.182 2.189-1.67l.001-.002.002-.002c.3-.296.523-.58.65-.824.133-.252.14-.417.09-.506a.145.145 0 01.056-.196zM4.847.347a2.199 2.199 0 00-1.834.658l-.001.002-.002.001c-.479.465-.872 1.273-1.026 2.24-.154.966-.066 2.082.204 3.029a.145.145 0 11-.278.079c-.281-.983-.373-2.142-.212-3.153.16-1.01.575-1.88 1.11-2.4A2.488 2.488 0 014.88.06c.788.091 1.596.562 2.214 1.218a.144.144 0 11-.21.199C6.3.856 5.55.428 4.846.347zM2.093 8.572a.145.145 0 010 .204l-.009.009a.145.145 0 01-.204-.205l.008-.008a.145.145 0 01.205 0zM8.015.677c.21.185.285.517.27.904a.145.145 0 01-.29-.012c.015-.363-.063-.58-.171-.675-.092-.081-.257-.113-.542.04a.145.145 0 01-.137-.255c.332-.178.646-.2.87-.002z" fill="#1b1b1b"/><path fill-rule="evenodd" clip-rule="evenodd" d="M9.682 2.455c.167.057.31.154.387.308a.144.144 0 11-.259.129c-.031-.063-.098-.121-.222-.163a1.445 1.445 0 00-.492-.058.145.145 0 11-.008-.289c.223-.006.426.016.594.073zM6.647 3.146a.145.145 0 01-.08.188c-.422.172-.882.38-1.352.62a.145.145 0 01-.131-.258c.477-.243.944-.455 1.375-.63a.145.145 0 01.188.08zM6.472.395c-.353-.154-.75-.147-1.143.068A.145.145 0 015.19.21c.47-.258.96-.27 1.398-.08.433.19.802.575 1.05 1.094a.145.145 0 11-.26.125c-.226-.47-.55-.798-.906-.954zM2.434 1.067a.145.145 0 01-.063.195 2.536 2.536 0 00-.645.466h-.001v.002c-.478.461-.79 1.215-.79 2.085-.001.87.309 1.853.806 2.668a.144.144 0 11-.247.15c-.52-.852-.85-1.886-.849-2.819.002-.933.335-1.766.877-2.291.202-.202.442-.379.717-.519a.145.145 0 01.195.063zM3.06 9.173a.145.145 0 01.192.072c.222.495.55.843.914 1.013.36.168.766.167 1.17-.055a.145.145 0 01.139.253c-.483.266-.987.271-1.431.064-.44-.205-.812-.614-1.056-1.156a.145.145 0 01.073-.191z" fill="#1b1b1b"/><path fill-rule="evenodd" clip-rule="evenodd" d="M5.389.271a.145.145 0 01-.064.195 2.653 2.653 0 00-.658.494h-.001v.001c-.484.472-.983 1.294-1.337 2.275-.353.98-.557 2.11-.58 3.068a.145.145 0 01-.29-.007c.025-.988.235-2.15.598-3.159.363-1.007.882-1.871 1.406-2.383a2.94 2.94 0 01.731-.547.145.145 0 01.195.063zM7.518 4.018a.144.144 0 01.083.187c-.34.877-.878 1.903-1.456 2.829-.576.923-1.2 1.756-1.715 2.243-.312.312-.629.568-.913.712a.145.145 0 01-.131-.258c.246-.124.538-.356.84-.66h.002l.002-.002c.488-.462 1.097-1.272 1.67-2.188C6.47 5.966 7 4.956 7.33 4.1a.145.145 0 01.187-.083z" fill="#1b1b1b"/><path fill-rule="evenodd" clip-rule="evenodd" d="M9.184 3.577a.145.145 0 01.205-.006c.657.618 1.128 1.426 1.219 2.214a2.486 2.486 0 01-.743 2.072c-.52.535-1.391.948-2.401 1.109-1.012.16-2.172.069-3.155-.212a.145.145 0 11.08-.278c.946.27 2.063.358 3.03.204.967-.153 1.775-.547 2.24-1.026l.001-.001.002-.002c.48-.466.74-1.134.659-1.833-.082-.703-.51-1.452-1.13-2.036a.145.145 0 01-.007-.205zM6.276 2.19c-.946-.27-2.063-.358-3.03-.204-.967.153-1.775.547-2.24 1.026l-.001.001-.002.002a2.197 2.197 0 00-.659 1.833c.082.703.51 1.452 1.13 2.036a.145.145 0 11-.198.21C.62 6.478.148 5.67.057 4.882A2.486 2.486 0 01.8 2.81c.52-.535 1.391-.948 2.401-1.109 1.012-.16 2.172-.069 3.155.212a.145.145 0 11-.08.278z" fill="#1b1b1b"/><path fill-rule="evenodd" clip-rule="evenodd" d="M8.973 3.984a.145.145 0 01.199.05c.077.13.151.263.22.4a.145.145 0 11-.257.13 6.468 6.468 0 00-.212-.382.144.144 0 01.05-.198zM3.844 6.82a.144.144 0 010 .205l-.008.008a.145.145 0 01-.204-.204l.008-.008a.145.145 0 01.204 0zM7.444 1.157a.145.145 0 01.193.066l.038.075a.145.145 0 11-.26.128l-.037-.075a.145.145 0 01.066-.194zM7.342.74a.145.145 0 01-.063.195c-.246.124-.538.356-.84.66l-.002.001-.002.001c-.489.462-1.097 1.272-1.67 2.188-.572.915-1.1 1.925-1.431 2.78a.145.145 0 01-.27-.104c.34-.877.877-1.903 1.456-2.829.576-.923 1.2-1.756 1.715-2.243.312-.312.629-.568.913-.712a.145.145 0 01.194.063zM9.175 3.059a.145.145 0 01.193-.068c.501.24.92.581 1.134 1.004a.144.144 0 11-.258.13c-.175-.346-.533-.65-1-.873a.145.145 0 01-.07-.193z" fill="#1b1b1b"/><path fill-rule="evenodd" clip-rule="evenodd" d="M6.445 2.602a.145.145 0 01-.141.148c-.958.024-2.09.228-3.07.58-.981.354-1.803.853-2.275 1.336l-.001.001-.001.002C.464 5.15.224 5.712.305 6.192c.081.48.492.931 1.116 1.222a.145.145 0 11-.123.262C.628 7.363.123 6.849.02 6.24c-.103-.609.203-1.26.733-1.778.512-.523 1.376-1.042 2.383-1.404a10.533 10.533 0 013.16-.598.145.145 0 01.149.141zM10.304 3.933a.145.145 0 01.196.059c.383.715.073 1.567-.588 2.211-.513.523-1.376 1.042-2.384 1.404-1.01.364-2.171.573-3.16.598a.145.145 0 11-.007-.29c.958-.023 2.09-.227 3.07-.58.981-.353 1.803-.852 2.275-1.335l.001-.001.001-.002c.62-.602.832-1.317.537-1.869a.144.144 0 01.06-.195z" fill="#1b1b1b"/><path fill-rule="evenodd" clip-rule="evenodd" d="M8.064 4.221c.08.002.143.068.141.148-.024.988-.234 2.15-.597 3.16-.363 1.006-.882 1.87-1.406 2.382a2.94 2.94 0 01-.731.547.145.145 0 01-.131-.257c.225-.115.448-.285.658-.495L6 9.704c.483-.472.982-1.294 1.336-2.275.352-.98.557-2.11.58-3.068a.145.145 0 01.148-.14z" fill="#1b1b1b"/></svg>