<svg viewBox="0 0 16 16" version="1.1" xmlns="http://www.w3.org/2000/svg"><path d="M12.558 3.435a.423.423 0 0 0-.306-.108.38.38 0 0 0-.287.108.366.366 0 0 0-.108.27c0 .107.036.215.108.269a.38.38 0 0 0 .287.108.38.38 0 0 0 .288-.108.366.366 0 0 0 .108-.27c0-.108-.018-.216-.09-.27zm-.108 1.222h-.377c-.09 0-.126.036-.126.126v2.983c0 .09.036.126.126.126h.377c.09 0 .126-.036.126-.126V4.783c0-.072-.036-.126-.126-.126zm2.498 7.315c.935-.79 1.187-2.426.99-2.678-.09-.108-.522-.216-1.061-.216-.576 0-1.259.126-1.78.486-.162.108-.126.251.036.233.557-.071 1.815-.215 2.05.072.215.288-.253 1.474-.468 1.995-.054.162.072.216.233.108zm-.808-6.596c.161-.18.413-.27.773-.27.18 0 .359.018.52.072a.267.267 0 0 0 .109.018c.054 0 .09-.036.09-.126v-.18c0-.053-.018-.107-.036-.125a.392.392 0 0 0-.09-.072c-.234-.054-.468-.108-.683-.108-.504 0-.881.144-1.169.45-.27.287-.413.718-.413 1.257 0 .54.126.953.395 1.24.27.288.647.432 1.15.432.27 0 .522-.036.72-.126.054-.018.09-.036.108-.072.017-.018.017-.072.017-.125v-.18c0-.09-.035-.126-.09-.126-.017 0-.053 0-.09.018-.197.054-.395.09-.574.09-.342 0-.594-.09-.755-.27-.162-.18-.234-.467-.234-.845v-.09c.018-.395.09-.683.252-.862zm.054 4.907c-1.96.827-4.099 1.24-6.04 1.24-2.876 0-5.662-.79-7.909-2.103-.035-.018-.071-.036-.107-.036-.126 0-.198.144-.072.27 2.085 1.887 4.853 3.02 7.908 3.02 2.193 0 4.728-.684 6.471-1.978.306-.216.054-.54-.251-.413zm-9.796-2.39h.377c.09 0 .126-.037.126-.127V5.52c0-.306-.072-.54-.234-.701-.162-.162-.377-.252-.683-.252-.413 0-.845.144-1.258.45-.144-.306-.413-.45-.809-.45-.395 0-.79.144-1.186.413l-.036-.197c0-.054-.018-.072-.054-.09-.018-.018-.054-.018-.09-.018H.263c-.09 0-.125.036-.125.126v2.983c0 .09.036.126.125.126h.378c.09 0 .126-.036.126-.126V5.358c.305-.18.61-.288.934-.288.18 0 .306.054.378.162a.806.806 0 0 1 .126.467v2.067c0 .09.036.126.126.126h.377c.09 0 .126-.036.126-.126V5.358c.323-.198.629-.288.934-.288.18 0 .306.054.378.162a.806.806 0 0 1 .126.467v2.067c0 .09.036.126.126.126zm3.415-3.11v2.39c-.306.198-.611.306-.917.306-.198 0-.342-.054-.431-.162-.09-.108-.126-.27-.126-.503V4.783c0-.09-.036-.126-.126-.126h-.378c-.09 0-.125.036-.125.126V7.01c0 .306.072.558.233.72.162.161.396.251.701.251.414 0 .827-.144 1.223-.431l.036.215c0 .054.018.072.053.09.018.018.054.018.108.018h.27c.09 0 .126-.036.126-.126V4.783c0-.09-.036-.126-.126-.126h-.378c-.107 0-.143.054-.143.126zm2.822 2.588a.85.85 0 0 1-.468.126 2.9 2.9 0 0 1-.88-.126c-.072-.018-.126-.036-.162-.036-.054 0-.072.036-.072.108v.18c0 .053.018.09.036.125a.276.276 0 0 0 .108.072c.287.126.61.18.97.18.378 0 .665-.09.899-.27.234-.18.342-.413.342-.719a.82.82 0 0 0-.162-.52 1.268 1.268 0 0 0-.54-.342l-.503-.198c-.197-.072-.341-.144-.395-.216a.34.34 0 0 1-.108-.27c0-.269.198-.413.611-.413.234 0 .467.036.683.108.072.018.126.036.144.036.054 0 .09-.036.09-.108v-.18a.26.26 0 0 0-.036-.125c-.018-.036-.054-.054-.108-.072-.27-.09-.54-.144-.809-.144-.341 0-.629.09-.845.252a.801.801 0 0 0-.323.665c0 .413.233.719.7.898l.54.198c.18.072.288.126.36.198.071.072.09.144.09.251 0 .144-.055.27-.162.342z"/></svg>
