<svg viewBox="0 0 16 16" xml:space="preserve" xmlns:xlink="http://www.w3.org/1999/xlink" xmlns="http://www.w3.org/2000/svg"><path d="M14.456 12.469a8.7 8.7 0 0 1-.86 1.546c-.452.645-.823 1.092-1.108 1.34-.443.407-.917.615-1.424.627-.365 0-.804-.104-1.316-.314-.513-.21-.985-.313-1.416-.313-.452 0-.938.103-1.457.313-.52.21-.938.32-1.258.33-.487.021-.972-.193-1.456-.643-.31-.27-.696-.732-1.16-1.387-.496-.7-.905-1.51-1.225-2.434-.343-.999-.515-1.966-.515-2.902 0-1.072.232-1.997.696-2.772a4.082 4.082 0 0 1 1.457-1.474 3.92 3.92 0 0 1 1.97-.556c.387 0 .894.12 1.524.355.629.236 1.032.355 1.209.355.132 0 .58-.14 1.34-.418.719-.259 1.325-.366 1.822-.324 1.346.109 2.357.64 3.03 1.595-1.204.73-1.8 1.752-1.788 3.062.011 1.021.382 1.87 1.11 2.545.33.313.698.555 1.108.727-.09.258-.183.505-.283.742zM11.37.32c0 .8-.293 1.547-.875 2.239C9.79 3.38 8.94 3.856 8.018 3.78a2.502 2.502 0 0 1-.019-.303c0-.768.334-1.59.928-2.263.297-.34.674-.623 1.131-.849.456-.222.888-.345 1.294-.366.012.107.017.214.017.32z" /></svg>
