<svg xml:space="preserve" width="118" height="48" xmlns="http://www.w3.org/2000/svg"><path d="M49.113 34.93V17.776h-.127L42.123 34.93h-2.668l-6.863-17.156h-.127V34.93h-3.177V11.675h4.067l7.37 18.554h.127l7.371-18.554h4.194V34.93zm21.223 0h-3.304v-2.922h-.127c-.89 2.034-2.67 3.177-5.211 3.177-3.686 0-5.846-2.415-5.846-6.354V17.9h3.432v10.295c0 2.541 1.27 3.94 3.558 3.94 2.541 0 3.94-1.78 3.94-4.449v-9.785h3.43zm9.404-17.282c3.94 0 6.354 2.16 6.481 5.337h-3.177c-.254-1.652-1.398-2.668-3.304-2.668s-3.177.89-3.177 2.287c0 1.017.762 1.78 2.541 2.16l2.67.635c3.43.763 4.702 2.161 4.702 4.576 0 3.05-2.796 5.21-6.736 5.21-4.194 0-6.735-2.033-6.99-5.338h3.432c.254 1.78 1.525 2.67 3.558 2.67s3.304-.89 3.304-2.288c0-1.144-.635-1.78-2.414-2.16l-2.67-.636c-3.176-.762-4.701-2.287-4.701-4.83 0-2.922 2.541-4.955 6.48-4.955zm9.277-4.194c0-1.144.89-2.033 2.033-2.033 1.144 0 2.034.889 2.034 2.033s-.89 2.033-2.034 2.033a2.008 2.008 0 0 1-2.033-2.033zm.254 4.448h3.431V34.93h-3.431zm17.92 5.846c-.382-1.78-1.653-3.304-3.94-3.304-2.67 0-4.449 2.287-4.449 5.845 0 3.686 1.78 5.846 4.449 5.846 2.16 0 3.43-1.144 3.94-3.177h3.303c-.38 3.558-3.177 6.1-7.243 6.1-4.83 0-7.88-3.304-7.88-8.769 0-5.337 3.05-8.768 7.88-8.768 4.32 0 6.862 2.795 7.243 6.1zM18.74 13.962c-.89 1.017-2.288 1.906-3.686 1.78-.254-1.526.509-3.051 1.271-3.94.89-1.144 2.415-1.906 3.686-1.906.127 1.397-.381 2.922-1.271 4.066zm1.27 2.033c.763 0 3.051.254 4.576 2.542-.127.127-2.669 1.652-2.669 4.83 0 3.812 3.304 5.083 3.304 5.083 0 .127-.508 1.78-1.652 3.558-1.016 1.525-2.16 3.05-3.812 3.05-1.653 0-2.16-1.016-4.067-1.016-1.906 0-2.542 1.016-4.067 1.016-1.652 0-2.922-1.652-3.94-3.177-2.16-3.177-3.812-8.896-1.524-12.709 1.016-1.906 3.05-3.177 5.083-3.177 1.652 0 3.177 1.144 4.066 1.144.89 0 2.67-1.27 4.703-1.144z" style="stroke-width:1.27084"/></svg>