<svg xml:space="preserve" width="82" height="48" xmlns="http://www.w3.org/2000/svg"><path style="stroke-width:.849825" d="M74.02 42.84c4.42-3.739 5.609-11.472 4.674-12.662-.425-.51-2.465-1.02-5.014-1.02-2.72 0-5.949.595-8.413 2.295-.765.51-.595 1.19.17 1.105 2.635-.34 8.583-1.02 9.688.34 1.02 1.36-1.19 6.969-2.21 9.433-.254.765.34 1.02 1.105.51zM62.208 8.254h-1.785c-.424 0-.594.17-.594.595v14.107c0 .424.17.595.594.595h1.785c.424 0 .594-.17.594-.595V8.847c0-.339-.17-.594-.594-.594zm.51-5.78c-.34-.34-.85-.509-1.445-.509-.595 0-1.02.17-1.36.51-.34.34-.51.765-.51 1.275 0 .51.17 1.02.51 1.275.34.34.765.51 1.36.51.595 0 1.02-.17 1.36-.51.34-.34.51-.766.51-1.275 0-.51-.085-1.02-.426-1.275zm-9.093 18.612c-.51.34-1.274.595-2.21.595-1.444 0-2.803-.17-4.164-.595-.34-.085-.595-.17-.764-.17-.255 0-.34.17-.34.51v.85c0 .255.085.425.17.595a1.307 1.307 0 0 0 .51.34c1.36.595 2.89.85 4.588.85 1.786 0 3.145-.425 4.25-1.275 1.105-.85 1.615-1.955 1.615-3.399 0-1.02-.255-1.785-.766-2.465-.509-.595-1.36-1.19-2.549-1.615l-2.379-.934c-.935-.34-1.615-.68-1.87-1.02-.34-.34-.51-.68-.51-1.275 0-1.275.935-1.955 2.89-1.955a10.27 10.27 0 0 1 3.229.51c.34.085.595.17.68.17.255 0 .425-.17.425-.51v-.85c0-.254-.085-.424-.17-.594-.085-.17-.255-.255-.51-.34-1.275-.425-2.55-.68-3.824-.68-1.615 0-2.975.425-3.994 1.19-1.02.765-1.53 1.869-1.53 3.144 0 1.955 1.105 3.399 3.314 4.249l2.549.935c.85.34 1.36.595 1.7.935.34.34.425.68.425 1.19 0 .68-.255 1.275-.765 1.614zM40.282 8.848V20.15c-1.445.933-2.89 1.444-4.334 1.444-.935 0-1.615-.255-2.04-.765-.425-.51-.594-1.274-.594-2.38V8.849c0-.425-.17-.595-.595-.595h-1.785c-.425 0-.595.17-.595.595v10.538c0 1.444.34 2.634 1.105 3.399.765.765 1.87 1.19 3.315 1.19 1.954 0 3.908-.68 5.778-2.04l.17 1.02c0 .254.084.34.255.424.084.086.255.086.51.086h1.274c.425 0 .595-.17.595-.595V8.848c0-.425-.17-.595-.595-.595h-1.784c-.51 0-.68.255-.68.595zM24.136 23.55h1.784c.425 0 .595-.17.595-.595V12.332c0-1.445-.34-2.549-1.105-3.314-.765-.766-1.784-1.19-3.23-1.19-1.954 0-3.994.68-5.948 2.124-.68-1.444-1.955-2.124-3.824-2.124-1.87 0-3.74.68-5.609 1.954l-.17-.934c0-.255-.085-.34-.255-.425-.084-.085-.255-.085-.425-.085h-1.36c-.424 0-.594.17-.594.595V23.04c0 .425.17.595.594.595h1.785c.425 0 .595-.17.595-.595V11.568c1.445-.85 2.89-1.36 4.42-1.36.849 0 1.444.254 1.784.765.34.51.594 1.19.594 2.209v9.773c0 .424.17.595.595.595h1.785c.425 0 .595-.17.595-.595V11.568c1.53-.936 2.975-1.36 4.419-1.36.85 0 1.444.254 1.784.765.341.51.596 1.19.596 2.209v9.773c0 .424.17.595.595.595zM70.45 34.852c-9.263 3.91-19.376 5.864-28.554 5.864-13.597 0-26.77-3.739-37.392-9.943-.17-.084-.34-.17-.51-.17-.595 0-.935.68-.34 1.275 9.858 8.923 22.946 14.276 37.393 14.276 10.367 0 22.35-3.23 30.593-9.348 1.446-1.02.255-2.549-1.19-1.955zm-.255-23.2c.766-.849 1.955-1.275 3.654-1.275.85 0 1.7.085 2.465.34.255.085.34.085.51.085.255 0 .425-.17.425-.595v-.85c0-.254-.085-.51-.17-.594-.085-.085-.255-.255-.425-.34-1.105-.255-2.21-.51-3.23-.51-2.38 0-4.165.68-5.524 2.124-1.274 1.36-1.954 3.4-1.954 5.95 0 2.549.595 4.504 1.87 5.863 1.274 1.36 3.059 2.04 5.439 2.04 1.274 0 2.464-.17 3.398-.596.256-.084.426-.17.51-.34.085-.083.085-.34.085-.594v-.85c0-.425-.17-.595-.424-.595a.924.924 0 0 0-.425.084c-.935.256-1.87.426-2.72.426-1.615 0-2.804-.425-3.569-1.274-.766-.85-1.104-2.21-1.104-3.994v-.425c.084-1.87.424-3.23 1.189-4.08z"/></svg>